<svg width="375" height="98" viewBox="0 0 375 98" fill="none" xmlns="http://www.w3.org/2000/svg">
    <g filter="url(#filter0_d_636_40)">
        <path d="M375 30.8136V92H0V30.8136C0 26.3544 2.01535 22.0778 5.6027 18.9246C9.19005 15.7714 14.0555 14 19.1288 14L117.447 14C125.26 14.0001 132.861 16.2357 139.101 20.3689C145.341 24.5022 146.466 30.8689 150.5 37.7791C154.534 44.6893 158.78 48.819 165 53C171.22 57.181 178.67 59.4025 186.5 59.5C194.33 59.5975 202.148 57.5245 208.5 53.5C214.852 49.4755 219.655 42.7209 223 37.5L226 32.5C229.531 26.447 231.983 22.898 235.5 20C241.157 15.3389 249.124 14.0001 256.763 14L355.871 14C360.944 14 365.81 15.7714 369.397 18.9246C372.985 22.0778 375 26.3544 375 30.8136Z" fill="white"/>
    </g>
    <defs>
        <filter id="filter0_d_636_40" x="-10" y="0" width="395" height="98" filterUnits="userSpaceOnUse" color-interpolation-filters="sRGB">
            <feFlood flood-opacity="0" result="BackgroundImageFix"/>
            <feColorMatrix in="SourceAlpha" type="matrix" values="0 0 0 0 0 0 0 0 0 0 0 0 0 0 0 0 0 0 127 0" result="hardAlpha"/>
            <feOffset dy="-4"/>
            <feGaussianBlur stdDeviation="5"/>
            <feComposite in2="hardAlpha" operator="out"/>
            <feColorMatrix type="matrix" values="0 0 0 0 0.0941176 0 0 0 0 0.145098 0 0 0 0 0.298039 0 0 0 0.08 0"/>
            <feBlend mode="normal" in2="BackgroundImageFix" result="effect1_dropShadow_636_40"/>
            <feBlend mode="normal" in="SourceGraphic" in2="effect1_dropShadow_636_40" result="shape"/>
        </filter>
    </defs>
</svg>
